<?xml version="1.0" encoding="utf-8"?>
<!-- Generator: Adobe Illustrator 23.0.2, SVG Export Plug-In . SVG Version: 6.00 Build 0)  -->
<svg version="1.1" id="圖層_1" xmlns="http://www.w3.org/2000/svg" xmlns:xlink="http://www.w3.org/1999/xlink" x="0px" y="0px"
	 viewBox="0 0 1920 1080" style="enable-background:new 0 0 1920 1080;" xml:space="preserve">
<style type="text/css">
	.st0{fill:#FDFAD3;}
	.st1{fill:#1CB66B;}
	.st2{fill:#EEF6F1;}
	.st3{fill:#E92A16;}
	.st4{fill:#020202;}
	.st5{fill:#ED2714;}
	.st6{fill:#060100;}
	.st7{fill:#020000;}
	.st8{fill:#F397C0;}
	.st9{fill:#020101;}
	.st10{fill:#020102;}
	.st11{fill:#050304;}
	.st12{fill:#228CD9;}
	.st13{fill:#DB9753;}
	.st14{fill:#010305;}
	.st15{fill:#030202;}
	.st16{fill:#030302;}
	.st17{fill:#030303;}
</style>
<g>
	<rect class="st0" width="1920" height="1080"/>
</g>
<path class="st1" d="M542.43,0c7.04,13.57,9.91,27.13,12.94,41.97c14.2,69.49,11.2,116.1-11.4,183.33
	c-35.11,104.34-137.44,180.16-239.53,211.98c-61.32,19.12-116.94,21.93-180.48,12.54c-10.5-1.55-28.45-3.89-37.95-6.75
	c-6.09-1.84-10.46-5.97-15.96-8.19c-9.01-3.64-19.03-4.45-28.17-9.27c-5.36-2.83-9.16-7.48-13.7-10.44
	c-5.93-3.87-15.55-8.23-20.33-12.27c-3.72-3.15-4.42-6.77-7.85-9.65V366.7c0-0.22,1.29-1.86,1.29-4.08
	C1.62,241.76,0.87,120.86,1.21,0C181.6-0.01,362.04,0.02,542.43,0z"/>
<path class="st2" d="M364.57,104.16c32.75-4.47,64.8,27.46,76.98,55.2c12.14,27.65-2.97,71.36-36.23,74.76
	c-44.08,4.49-79.41-36.23-81.58-77.74C322.43,131.44,338.88,107.67,364.57,104.16z"/>
<path class="st3" d="M249.76,177.7c18.88-3.83,26.6,27.5,4.26,29.63C237.6,208.9,233.48,181.01,249.76,177.7z"/>
<path class="st4" d="M392.85,158.04c22.72-3.26,36.07,16.82,32.84,37.6c-1.16,7.45-12.68,18.41-20.15,19.69
	c-19.14,3.27-30.64-8.54-34.99-26C366.61,173.51,377.02,160.31,392.85,158.04z"/>
<path class="st5" d="M1670.44,1.17H1920v321.29c-10.5,4.21-20.72,9.65-31.34,13.62c-23.83,8.89-49.19,12.48-74.45,15.47
	c-18.23,2.15-36.18,4.79-54.41,5.02c-40.71,0.51-81.15-0.96-121.65-3.75c-23.23-1.6-34.99-3.22-57.39-9.73
	c-57.03-16.58-110.57-37.66-165.86-58.27c-17.96-6.7-30.35-9.73-48.08-19.04c-28.66-15.05-58.96-33.89-85.18-52.81
	c-32.29-23.3-52.71-42.2-76.86-73.79c-7.36-9.64-16.11-16.47-20.81-28.54c-2.67-6.87-5.85-19.28-7.49-26.68
	c-3.17-14.39-3.46-20.79-0.03-35.26c4.07-17.15,11.08-34.13,22.74-47.51l466.17-0.03 M1667,1"/>
<path class="st6" d="M1617,102.01c11.01,3.95,28.77,37.04,15.57,44c-16.04,8.44-16.89-18.51-20.67-27.55
	c-1.89-1.41-29.91,9.49-34.93,10.03c-3.75,0.41-7.5,0.65-9.2-3.34c-0.54-1.51-0.2-2.74,0.44-4.14c3.09-6.65,35.75-16.79,43.72-19
	h5.07L1617,102.01z"/>
<path class="st7" d="M1657.66,188.94c10.22-0.72,19.95,5.6,23.18,15.41c5.31,16.15-6.72,47.9-21.97,56.37
	c-20.65,11.48-35.59-1.42-34.65-23.42c0.77-18.13,12.25-46.88,33.45-48.37L1657.66,188.94z"/>
<path class="st7" d="M1474,150.25c20.95-2.99,29.37,11.14,27.04,30.35c-1.74,14.36-23.22,41.78-39.16,40.47
	c-35.13-2.88-16.98-66.66,12.11-70.83L1474,150.25z"/>
<path class="st8" d="M574.77,1080H1.04c-1.57-12.3,7.32-20.6,11.8-31.09c12.63-29.51,23.72-60.81,36.09-90.72
	c24.31-58.76,47.83-118.52,75.1-176.04c2.35-4.95,7.32-10.09,9.56-15.31c1.94-4.52,2.33-9.45,4.51-14.14
	c11.96-25.84,34.25-21.49,57.7-23.16c81.24-5.77,161.38-5.25,242.65-4.9c33.96,0.15,70.86-6.76,103.41-5.08
	c10.02,0.51,21.16,3.46,31.06,3.77c21.92,0.7,41.74-1.97,64.41,1.56c32.79,5.09,19.84,48.03,15.48,69.55
	c-8.92,44.07-19.95,90.79-30.84,134.49c-9.72,38.95-24.52,74.93-36.33,112.86c-3.95,12.66-5.59,25.96-10.86,38.23L574.77,1080z"/>
<path class="st9" d="M267.04,875.77c-11.55-11.38-30.72-32.15-18.21-49.57c3.7-5.15,13.18-7.98,19.27-6.81
	c3.76,0.72,14.18,11.65,16.17,11.16c7.28-12.25,27.29-21.67,37.29-7.37c10.55,15.08-6.75,42.89-17.32,54.61
	c-17.44,19.34-20.73,14.19-37.2-2.03L267.04,875.77z"/>
<path class="st10" d="M489.84,887.29c-4.84,4.52-12.79,5.8-18.71,2.76c-5.14-2.64-26.98-30.52-29.45-36.47
	c-12.25-29.56,12.23-42.84,33.19-23.11c8.46-5.55,23.39-17.39,32.63-7.82c4.82,4.99,8.39,13.58,7.36,20.63
	c-1.68,11.47-16.52,36.04-25.03,43.98L489.84,887.29z"/>
<path class="st11" d="M394.44,923.78c-9.89-2.49-17.75,5.29-26.76,5c-4.94-0.16-0.81-7.14,1.95-9.28
	c24.55-19.03,57.29-2.49,26.07,22.29c6,4.11,13.45,10.88,13.71,18.68c0.66,19.64-45.48,33.3-41.11,11.19
	c1.61-8.13,24.93-4.58,24.95-12.46c0.04-11-28.99,1.56-23.17-15.63C372.57,936.3,392.17,932.7,394.44,923.78L394.44,923.78z"/>
<path class="st12" d="M1920,605.46V1080h-399.83c-7.13-17.07-18.47-33.49-25.85-50.19c-18.13-40.94-36.16-82.17-57.31-121.79
	c-11.44-21.4-40.64-60.16-41.96-83.25c-1.45-25.48,39.71-33.74,56.8-41.04c17.44-7.43,32.06-17.33,48.38-25.58
	c37.01-18.71,77.14-30.14,115.27-46.88c15.64-6.87,30.88-16.66,46.59-23.11c17.74-7.27,38.45-12.35,56.62-18.77
	c54.88-19.38,109.71-39.02,164.7-58.61c8.3-2.96,14.58-8.84,24.47-8.25c4.23,0.24,7.84,3.03,12.14,2.92V605.46z"/>
<path class="st13" d="M1626.82,872.05c-2.63,8.82-12.09,16.79-8.42,27.45c0.38,1.11,14.7,8.57,19.02,13.67
	c42.46,49.93-5.02,110.76-60.02,78.4c-26-15.3-32.84-42.74-23.31-70.63c6.93-20.26,33.04-29.62,52.7-24.8
	c-0.23-10.22,4.91-19.41,9.83-27.93l-16.69-18.48c-29.2-49.06,28.47-104.01,77.05-68.41c50.83,37.25,4.38,107.87-50.19,90.75
	L1626.82,872.05z M1674.6,792.94c-20.32-19.15-50.83-16.14-65.54,8.14c-10.5,17.33-14.17,30.48-0.8,47.44
	C1646.82,897.45,1718.28,834.1,1674.6,792.94L1674.6,792.94z M1594.96,905.22c-4.43,0.01-13.82,2.42-17.36,5.09
	c-1.91,1.44-14.19,13.83-15.52,15.77c-24.54,35.8,30.49,85.56,66.78,59.58c34.42-24.64,6.47-80.59-33.91-80.44L1594.96,905.22z"/>
<path class="st14" d="M1657.52,899.14c8.15-2.72,15.08,9.5,21.26,9.82c5.28,0.26,12.12-9.92,21.02-6.94
	c10.13,9.69-10.46,26.67-19.35,25.17c-7.83-1.31-35.71-23.76-22.92-28.03V899.14z"/>
<path class="st14" d="M1644.83,812.64c24.56-5.04,25.78,27.12-1.75,29.53C1616.87,844.46,1622.36,817.25,1644.83,812.64z"/>
<path class="st14" d="M1595.06,930.49c9.62-1.96,30.88,18.8,29.97,28.53c-1.27,13.5-16.08,16.53-25.37,7.5
	C1592.48,959.54,1578.51,933.88,1595.06,930.49L1595.06,930.49z"/>
<path class="st4" d="M694.82,520.95c-0.03,0.51-1.01,1.78-1.13,3.21c-0.56,6.43,0.38,11.53-2.66,17.93
	c-4.61,9.72-19.27,10.74-25.32,1.43c-6.53-10.04-1.13-38.44-1.21-51.85c-0.05-8.01-0.82-17.57-1.08-25.99
	c-0.31-10.23-2.33-22.34-2.3-32.46c0.02-5.52,2.07-12.86,2.04-18.39c-0.08-14.22-5.85-31.47-4.14-45.51
	c0.85-6.95,5.82-12.06,13.09-9.77c7.16,2.26,3.05,18.69,9.16,24.4c50.05-36.37,108.18,11.97,63.41,65.51
	c-4.7,5.62-12.02,10.34-16.27,15.16c-0.84,0.94-1.4,1.2-1.05,2.72c16.75,7.41,38.24,16.71,46.83,33.92
	c10.36,20.77-3.52,36.34-25.44,28.65c-17.66-6.19-36.61-23.05-53.93-31.16c-0.37,7.32,0.5,14.89,0,22.2L694.82,520.95z
	 M691.56,444.61c18.19-0.21,59.62-49.95,17.06-41.98c-4.35,0.81-11.1,5.41-13.81,8.95c-8.76,11.42-2.55,20.25-3.25,33.02V444.61z"/>
<path class="st4" d="M946.42,494.42c-5.16,2.4-9.78,6.14-15.19,8.1c-19.34,7.03-42.12-0.36-41.21-23.76
	c1.11-28.31,32.04-76.49,63.46-50.4c1.74,1.44,3.18,4.89,4.53,5.3c1.68,0.51,3.58-0.8,5.06-0.6c8.99,1.24,12.83,6.58,13.71,15.34
	c-3.48,41.05,8.37,124.04-20.04,156.48c-28.01,32.01-89.06-0.55-101.45-31.93c-1.83-4.65-4.61-16.81,1.87-18.8
	c6.34-1.94,9.5,9.8,14.41,14.45c13.08,12.33,36.83,21.08,54.8,18.97c10.74-1.27,14.67-19.02,16.44-27.98
	c4.18-21.13,3.47-43.73,3.59-65.17L946.42,494.42z M935.27,445.92c-8.78,2-17.5,21.54-18.06,29.7c-0.47,6.85,4.39,4.34,9.01,2.42
	c7.3-3.04,22.41-16.09,20.58-24.51c-1.31-6.07-5.4-9.01-11.55-7.61L935.27,445.92z"/>
<path class="st4" d="M1034.29,448.93c36.79-37.66,51.48,15.23,57.48,44.39c1.26,1.32,9.62-8.61,12.72-9.47
	c10.56-2.93,8.57,6.62,5.89,13.45c-3.98,10.16-14.52,24.87-26.72,24.23c-21.17-1.12-25.35-41.66-31.48-56.34
	c-7.73,6.8-14.42,19.65-15.61,29.88c-1.05,9.1,1.64,27.59-13.7,27.32c-12.73-0.23-13.97-16.98-14.61-26.37
	c-3.23-47.88,3.04-101.25-4.67-148.03c-0.9-5.49-6.89-15.99,2.19-17.98c17.91-3.93,22.49,35.39,24,47.05
	c3.06,23.69,3.77,48.01,4.5,71.86L1034.29,448.93z"/>
<path class="st4" d="M1173.13,682.84l2.15-0.53l3.25-62.8c1.52-4.82,1.93-30.38,6.11-31.81l5.1,0.03c3.02,1.03,4.43,13.26,4.9,16.77
	c4.46,32.78,1.55,66.5,3.36,99.52c0.59,10.66,3.8,22.17,4.36,32.45c0.8,14.55-7.45,20.37-20.05,12.48
	c-11.18,16.53-28.59,32.28-50.06,23.97c-31.26-12.08-32.53-63.79-16.45-88.27c13.47-20.52,43.17-21.58,57.33-1.81H1173.13z
	 M1145.72,690.67c-11.56,1.89-13.39,26.55-12.6,35.9c0.53,6.36,4.41,21.78,12.4,22.31c9.14,0.61,25.19-14.92,28.42-23.4
	c-2.8-11.47-13.64-37.19-28.21-34.81V690.67z"/>
<path class="st15" d="M968.83,656.16c2.3,2.3,6.55,7.48,5.65,10.75c-4.48,7.44-11.73-1.56-18.03-2.27
	c-5.3-0.6-11.15,2.81-14.92,6.27c-14.07,12.92-22.39,55.88-17.13,73.47c7.39,24.68,39.82,9.87,52.97-1.94
	c6.04-5.43,9.97-14.6,18.95-15.19c2.78,8.07-0.88,14.75-4.96,21.57c-15.82,26.5-55.13,50.5-83.87,28.69
	c-33.53-25.44-14.13-96.47,14.57-119.55c13.9-11.18,32.91-15.7,46.78-1.81L968.83,656.16z"/>
<path class="st4" d="M1251.19,705.6c4.53,30.04,40.37-0.31,52.62,4.22c14.95,5.53-2.21,22.68-9.34,27.61
	c-43.3,30-76.8-1.49-72.55-48.62c2.95-32.75,44.94-53.65,70.99-33.02c28.5,22.57-21.24,49.64-41.72,49.8L1251.19,705.6z
	 M1250.11,688.26c5.48,1.75,31.39-12.44,30.37-16.77C1268.76,663.74,1249.17,673.72,1250.11,688.26z"/>
<path class="st16" d="M1181.5,428.09c-3.47,3.6-24.28,9.38-30.1,11.11l5.43,48.73c7.78-5.25,14.74-11.77,22.43-17.13
	c5.49-3.83,23.67-18.99,27.01-7.81c1.75,5.85-9.76,18.36-13.68,23.29c-7.55,9.5-30.09,38.17-40.89,40.39
	c-6.4,1.31-13.41-0.55-17.49-5.87c-8.54-11.08-2.4-33.17-2.29-46.36l-1.13-28.75c-8.34-0.36-35.45,6.91-39.56-2.17
	c-2.19-4.83,0-9.55,4.84-11.38c4.12-1.56,28.24-4.88,29.28-5.97c1.2-7.59-8.1-16.64-2.17-23.29c9.15-10.24,17.67,11.42,21.7,17.39
	c6.08,1.37,35.48-6.98,37.81,0.15c0.61,1.87,0.16,6.25-1.2,7.67L1181.5,428.09z"/>
<path class="st17" d="M1053.51,653.87c25.82-4.29,38.68,27.88,37.15,49c-1.64,22.56-24.4,62.7-51.7,51.66
	c-22.6-9.13-18.27-43.37-13.05-62.17C1029.38,679.87,1039.14,656.27,1053.51,653.87L1053.51,653.87z M1046.34,732.52
	c5.89,3.61,17.26-14.38,19.23-18.96c4.46-10.31,6.19-26.95-3.62-35.05c-4.1-3.38-11.86-4.56-15.75-0.53
	c-4.33,4.48-4.78,51.54,0.14,54.55V732.52z"/>
<path class="st17" d="M841,414.6c7.59-0.65,18.39-1.3,20.41,8.3c2.91,13.88-22.87,19.81-32.97,21.39
	c-10.1,1.57-40.31,4.14-44.77-6.64c-2.57-6.2-0.28-11.28,5.83-13.83c6.96-2.91,42.57-8.45,51.51-9.22H841z"/>
<path class="st17" d="M813.79,449.15c6.11-1.83,11.08,6.67,14.22,11.37c5.55,8.33,10.64,19.6,12.9,29.36
	c2.56,11.08,7.33,47.38-12.07,44.58c-12.78-1.85-8.62-24.24-9.26-33.02c-0.67-9.32-2.22-19.13-4.24-28.25
	c-1.12-5.05-8.95-21.79-1.55-24.01L813.79,449.15z"/>
<g id="圖層_2">
</g>
<path class="st4" d="M2093,579c-4.56,2.25-6,1.76-7,1c-5.68-4.32,4-32,4-32s0.07,0,0,0c50.05-36.37,107.88,11.92,63.11,65.45
	c-4.7,5.62-12.02,10.34-16.27,15.16c-0.01,0.01-0.02,0.02-0.02,0.03c-0.99,1.11-0.64,2.87,0.73,3.47
	c16.46,7.28,36.78,16.53,45.08,33.15c10.36,20.77-3.52,36.34-25.44,28.65c-17.66-6.19-38.72-19.57-53.94-31.16
	C2097,658,2094.82,652.75,2091,643c-2.15-5.5-3-14.76-3-22 M2089,619c1.98-0.15,6-3.61,11-7c12-6,42.39-32.67,35.55-42.81
	c-2.39-3.54-11.39-4.77-17.49-2.57C2113.1,568.41,2095,578,2095,578s0.03,0.97,0,1"/>
<path class="st4" d="M2363.13,660.84l2.15-0.53l3.25-62.8c1.52-4.82,1.93-30.38,6.11-31.81l5.1,0.03c3.02,1.03,4.43,13.26,4.9,16.77
	c4.46,32.78,1.55,66.5,3.36,99.52c0.59,10.66,3.8,22.17,4.36,32.45c0.8,14.55-7.45,20.37-20.05,12.48
	c-11.18,16.53-28.59,32.28-50.06,23.97c-31.26-12.08-32.53-63.79-16.45-88.27c13.47-20.52,43.17-21.58,57.33-1.81H2363.13z
	 M2335.72,668.67c-11.56,1.89-13.39,26.55-12.6,35.9c0.53,6.36,4.41,21.78,12.4,22.31c9.14,0.61,25.19-14.92,28.42-23.4
	c-2.8-11.47-13.64-37.19-28.21-34.81V668.67z"/>
<path class="st4" d="M2492.13,660.84l2.15-0.53l3.25-62.8c1.52-4.82,1.93-30.38,6.11-31.81l5.1,0.03c3.02,1.03,4.43,13.26,4.9,16.77
	c4.46,32.78,1.55,66.5,3.36,99.52c0.59,10.66,3.8,22.17,4.36,32.45c0.8,14.55-7.45,20.37-20.05,12.48
	c-11.18,16.53-28.59,32.28-50.06,23.97c-31.26-12.08-32.53-63.79-16.45-88.27c13.47-20.52,43.17-21.58,57.33-1.81H2492.13z
	 M2464.72,668.67c-11.56,1.89-13.39,26.55-12.6,35.9c0.53,6.36,4.41,21.78,12.4,22.31c9.14,0.61,25.19-14.92,28.42-23.4
	c-2.8-11.47-13.64-37.19-28.21-34.81V668.67z"/>
<path class="st4" d="M2041,446c1,7,3,16,3,16l3,14c-0.03,0.51-1.76,3.73-1.87,5.16c-0.56,6.43,0.38,11.53-2.66,17.93
	c-4.61,9.72-19.27,10.74-25.32,1.43c-6.53-10.04-1.13-38.44-1.21-51.85c-0.05-8.01-0.82-17.57-1.08-25.99
	c-0.31-10.23-2.33-22.34-2.3-32.46c0.02-5.52,2.07-12.86,2.04-18.39c-0.08-14.22-5.85-31.47-4.14-45.51
	c0.85-6.95,5.82-12.06,13.09-9.77c7.16,2.26,5.47,17.46,7.47,25.46c2.3,39.05,6,29,8,83"/>
<path class="st2" d="M174.57,233.16c32.75-4.47,64.8,27.46,76.98,55.2c12.14,27.65-2.97,71.36-36.23,74.76
	c-44.08,4.49-79.41-36.23-81.58-77.74C132.43,260.44,148.88,236.67,174.57,233.16z"/>
<path class="st4" d="M233.88,311.33c-0.4,10.66-10.41,26.64-21.42,28.67c-20.8,3.84-41.4-16.71-34.43-37.99
	c2.39-7.32,16.5-17.3,23.92-18.35c8.89-1.26,20.02,5.73,25.89,12C232.48,300.6,234.13,304.48,233.88,311.33L233.88,311.33z"/>
</svg>
