<svg width="649" height="614" viewBox="0 0 649 614" fill="none" xmlns="http://www.w3.org/2000/svg">
<path fill-rule="evenodd" clip-rule="evenodd" d="M294.537 123.627C370.016 129.323 449.28 100.622 512.132 142.802C585.842 192.271 656.037 272.053 647.337 360.397C638.864 446.433 548.704 497.018 473.116 538.976C418.759 569.148 356.633 559.263 294.537 556.231C237.271 553.434 178.998 556.011 132.588 522.346C77.985 482.737 39.042 426.283 24.5705 360.397C5.71229 274.539 -24.667 165.243 41.4212 107.281C107.501 49.3269 206.893 117.013 294.537 123.627Z" fill="white" fill-opacity="0.3"/>
<path fill-rule="evenodd" clip-rule="evenodd" d="M509.986 25.5166C464.96 -7.51597 415.954 -7.51597 370.928 25.5166C304.152 74.5057 304.152 200.91 370.928 249.899C415.954 282.931 464.96 282.931 509.986 249.899C576.762 200.91 576.762 74.5057 509.986 25.5166ZM467.823 73.866C448.469 64.0111 432.474 64.0111 413.121 73.866C371.705 94.9555 371.705 180.338 413.121 201.428C432.474 211.283 448.469 211.283 467.823 201.428C509.239 180.338 509.239 94.9555 467.823 73.866Z" fill="#F27B12"/>
<path fill-rule="evenodd" clip-rule="evenodd" d="M124.264 349.604C95.5368 354.394 76.5744 380.319 76.5744 409.443V548.827C76.5744 577.951 95.5368 603.876 124.264 608.666C161.455 614.867 211.836 617.903 242.813 597.796C322.641 545.982 322.641 412.288 242.813 360.474C211.836 340.367 161.455 343.403 124.264 349.604ZM195.992 403.432C167.997 395.483 147.718 426.305 147.718 455.407V502.861C147.718 531.962 167.997 562.784 195.992 554.836C198.636 554.086 201.142 553.085 203.428 551.783C245.609 527.761 245.609 430.506 203.428 406.484C201.142 405.182 198.636 404.182 195.992 403.432Z" fill="#F27B12"/>
<path d="M258.607 275.108C302.961 244.918 270.274 216.663 247.933 215.807C225.592 214.951 186.524 244.657 155.772 226.81C103.091 196.236 104.252 120.72 157.811 94.2143C195.247 75.6881 198.745 106.136 234.839 97.1644C257.18 98.02 256.487 68.0909 250.465 51.1815C233.094 2.40911 157.771 11.8979 109.065 34.7651C21.4205 75.9144 19.1827 221.433 105.459 269.243C153.404 295.812 224.122 298.581 258.607 275.108Z" fill="#F27B12"/>
<path d="M542.522 587.985L394.246 592.965C372.184 593.706 353.894 575.783 353.894 553.423L353.894 351.614C353.894 331.555 369.941 315.301 389.744 315.301L515.274 315.301C530.592 315.301 543.274 327.375 544.223 342.862C545.247 359.576 532.286 373.761 515.757 374.017L437.008 375.239C423.623 375.446 412.987 386.68 413.34 400.235C413.691 413.696 424.753 424.325 438.041 423.971L489.475 422.6C506.871 422.136 521.351 436.051 521.811 453.673C522.278 471.608 508.058 486.397 490.346 486.397H437.838C424.76 486.397 414.261 497.317 414.606 510.56C414.941 523.4 425.367 533.608 438.047 533.51L541.372 532.712C556.252 532.597 568.488 544.577 568.88 559.645C569.276 574.827 557.507 587.481 542.522 587.985Z" fill="#F27B12"/>
</svg>
