<svg width="464" height="289" viewBox="0 0 464 289" fill="none" xmlns="http://www.w3.org/2000/svg">
<path d="M67.3871 0H423.798C436.701 0 447.161 10.4597 447.161 23.3623C447.161 36.2649 436.701 46.7245 423.798 46.7245H399.886C392.588 46.7245 386.671 52.6411 386.671 59.9396C386.671 67.238 392.588 73.1546 399.886 73.1546H437.883C452.306 73.1546 463.998 84.8468 463.998 99.27C463.998 113.693 452.306 125.385 437.883 125.385H426.966C418.321 125.385 411.313 132.394 411.313 141.039C411.313 149.684 404.304 156.692 395.659 156.692H388.526C375.941 156.692 365.739 166.895 365.739 179.479V181.077C365.739 194.545 376.656 205.462 390.123 205.462H405.924C413.613 205.462 419.847 211.696 419.847 219.385C419.847 227.075 426.08 233.308 433.77 233.308H441.922C454.114 233.308 463.998 243.192 463.998 255.384V261.154C463.998 276.533 451.531 289 436.152 289H44.844C29.4651 289 16.998 276.533 16.998 261.154C16.998 245.775 29.4651 233.308 44.844 233.308H74.6649C82.3543 233.308 88.5879 227.075 88.5879 219.385C88.5879 211.696 82.3543 205.462 74.6649 205.462H69.2561C58.5795 205.462 49.9244 196.807 49.9244 186.13V181.077C49.9244 167.61 60.8419 156.692 74.3093 156.692H84.0345C92.6797 156.692 99.6881 149.684 99.6881 141.039C99.6881 132.394 92.6797 125.385 84.0345 125.385H43.1135C28.6903 125.385 16.998 113.693 16.998 99.27C16.998 84.8468 28.6903 73.1546 43.1135 73.1546H69.4733C80.03 73.1546 88.5879 64.5967 88.5879 54.04C88.5879 43.4833 80.03 34.9254 69.4733 34.9254H67.3871C57.7427 34.9254 49.9244 27.1071 49.9244 17.4627C49.9244 7.81832 57.7427 0 67.3871 0Z" fill="white"/>
<path d="M49.8986 13H411.888C424.201 13 434.182 22.9816 434.182 35.2945C434.182 47.6074 424.201 57.589 411.888 57.589H385.738C378.774 57.589 373.127 63.2351 373.127 70.2C373.127 77.1649 378.774 82.811 385.739 82.811H426.255C440.019 82.811 451.177 93.9689 451.177 107.733C451.177 121.497 440.019 132.655 426.255 132.655H412.937C404.687 132.655 397.999 139.343 397.999 147.593C397.999 155.843 391.311 162.531 383.061 162.531H374.999C362.297 162.531 351.999 172.963 351.999 185.665C351.999 198.517 362.418 209.071 375.27 209.071H393.327C400.665 209.071 406.613 215.02 406.613 222.358C406.613 229.696 412.562 235.645 419.9 235.645H428.895C441.201 235.645 451.177 245.621 451.177 257.927V262.218C451.177 276.894 439.28 288.791 424.604 288.791H26.5732C11.8972 288.791 0 276.894 0 262.218C0 247.542 11.8972 235.645 26.5732 235.645H58.9722C66.3102 235.645 72.2588 229.696 72.2588 222.358C72.2588 215.02 66.3102 209.071 58.9722 209.071H52.7464C41.97 209.071 33.234 200.335 33.234 189.559V185.801C33.234 172.949 43.6525 162.531 56.5043 162.531H68.5247C76.7747 162.531 83.4627 155.843 83.4627 147.593C83.4627 139.343 76.7747 132.655 68.5247 132.655H24.9218C11.1579 132.655 0 121.497 0 107.733C0 93.9689 11.1579 82.811 24.9218 82.811H54.0179C64.0921 82.811 72.2588 74.6443 72.2588 64.5701C72.2588 54.4959 64.092 46.3291 54.0179 46.3291H49.8986C40.695 46.3291 33.234 38.8682 33.234 29.6646C33.234 20.461 40.695 13 49.8986 13Z" fill="#2382C9"/>
<path fill-rule="evenodd" clip-rule="evenodd" d="M296.831 46.6572C291.247 46.668 286.524 51.3881 286.535 57.4572C286.547 63.5263 291.289 68.2282 296.873 68.2175C302.457 68.2067 307.181 63.4865 307.169 57.4174C307.157 51.3483 302.416 46.6464 296.831 46.6572ZM279.035 57.4717C279.016 47.4912 286.863 39.1762 296.817 39.1571C306.771 39.1379 314.65 47.4225 314.669 57.403C314.688 67.3835 306.841 75.6984 296.887 75.7176C286.934 75.7368 279.054 67.4522 279.035 57.4717Z" fill="#FA8F21"/>
<path fill-rule="evenodd" clip-rule="evenodd" d="M336.82 46.5322C331.235 46.543 326.512 51.2631 326.524 57.3322C326.535 63.4013 331.277 68.1032 336.861 68.0925C342.446 68.0817 347.169 63.3615 347.157 57.2924C347.146 51.2233 342.404 46.5214 336.82 46.5322ZM319.024 57.3467C319.004 47.3662 326.852 39.0512 336.805 39.0321C346.759 39.0129 354.638 47.2975 354.657 57.278C354.677 67.2585 346.829 75.5734 336.876 75.5926C326.922 75.6118 319.043 67.3272 319.024 57.3467Z" fill="#FA8F21"/>
<path fill-rule="evenodd" clip-rule="evenodd" d="M319.402 59.2348C318.014 58.9126 316.605 58.683 315.681 58.7053C314.856 58.7252 313.603 58.9657 312.373 59.2783C311.798 59.4246 311.291 59.5699 310.93 59.6782C310.75 59.7322 310.609 59.7763 310.515 59.8059C310.468 59.8207 310.434 59.8319 310.412 59.8388L310.389 59.8463C310.389 59.8462 310.39 59.8461 309.214 56.2852C308.037 52.7244 308.038 52.7243 308.038 52.7242L308.045 52.7218L308.059 52.7173L308.102 52.7032C308.139 52.6915 308.189 52.6753 308.252 52.6554C308.378 52.6154 308.556 52.5601 308.776 52.4942C309.213 52.363 309.825 52.1875 310.526 52.0093C311.849 51.6728 313.785 51.2488 315.5 51.2073C317.424 51.1608 319.606 51.5826 321.098 51.929C321.889 52.1125 322.579 52.2976 323.072 52.4372C323.32 52.5073 323.521 52.5666 323.663 52.6094C323.735 52.6308 323.791 52.6482 323.832 52.6608L323.881 52.676L323.896 52.6808L323.904 52.6834C323.905 52.6835 323.905 52.6836 322.774 56.2591C321.643 59.8345 321.644 59.8347 321.644 59.8348L321.618 59.8266C321.594 59.8191 321.554 59.8071 321.501 59.7912C321.395 59.7592 321.235 59.7119 321.032 59.6545C320.624 59.539 320.052 59.3856 319.402 59.2348Z" fill="#FA8F21"/>
<path d="M302.606 57.4276C302.613 60.7093 300.042 63.3746 296.865 63.3807C293.688 63.3868 291.108 60.7315 291.101 57.4498C291.095 54.1681 293.665 51.5028 296.842 51.4967C300.019 51.4906 302.6 54.1459 302.606 57.4276Z" fill="black"/>
<path d="M342.595 57.3495C342.601 60.6312 340.031 63.2964 336.854 63.3026C333.677 63.3087 331.096 60.6533 331.09 57.3717C331.083 54.09 333.654 51.4247 336.831 51.4186C340.008 51.4125 342.588 54.0678 342.595 57.3495Z" fill="black"/>
<path fill-rule="evenodd" clip-rule="evenodd" d="M308.492 81.2188C308.488 79.1477 310.163 77.4655 312.234 77.4615L322.046 77.4426C324.117 77.4386 325.799 79.1143 325.803 81.1854C325.807 83.2565 324.131 84.9387 322.06 84.9427L312.249 84.9617C310.178 84.9657 308.496 83.2899 308.492 81.2188Z" fill="black"/>
</svg>
