<svg width="524" height="615" viewBox="0 0 524 615" fill="none" xmlns="http://www.w3.org/2000/svg">
<path fill-rule="evenodd" clip-rule="evenodd" d="M471.696 25.6846C426.67 -7.348 377.663 -7.348 332.637 25.6846C265.861 74.6737 265.861 201.078 332.637 250.067C377.663 283.099 426.67 283.099 471.696 250.067C538.472 201.078 538.472 74.6737 471.696 25.6846ZM429.532 74.034C410.179 64.1791 394.184 64.1791 374.831 74.034C333.414 95.1235 333.414 180.506 374.831 201.596C394.184 211.451 410.179 211.451 429.532 201.596C470.949 180.506 470.949 95.1235 429.532 74.034Z" fill="white"/>
<path fill-rule="evenodd" clip-rule="evenodd" d="M78.7084 351.132C49.9809 355.922 31.0186 381.847 31.0186 410.971V550.355C31.0186 579.479 49.981 605.404 78.7084 610.194C115.899 616.395 166.28 619.431 197.257 599.324C277.085 547.51 277.085 413.816 197.257 362.002C166.28 341.895 115.899 344.931 78.7084 351.132ZM150.441 404.959C122.446 397.011 102.167 427.833 102.167 456.934V504.389C102.167 533.49 122.446 564.312 150.441 556.364C153.085 555.613 155.591 554.613 157.878 553.311C200.058 529.289 200.058 432.034 157.878 408.012C155.591 406.71 153.085 405.71 150.441 404.959Z" fill="white"/>
<path d="M216.662 280.107C261.015 249.917 228.328 221.661 205.988 220.806C183.647 219.95 144.579 249.656 113.827 231.809C61.1455 201.234 62.3068 125.719 115.866 99.2131C153.302 80.6868 156.8 111.135 192.894 102.163C215.235 103.019 214.542 73.0896 208.519 56.1802C191.149 7.40783 115.825 16.8966 67.1199 39.7639C-20.5247 80.9131 -22.7625 226.431 63.514 274.241C111.459 300.81 182.177 303.58 216.662 280.107Z" fill="white"/>
<path d="M497.017 598.832L348.741 603.812C326.679 604.553 308.389 586.63 308.389 564.27L308.389 362.461C308.389 342.402 324.435 326.148 344.238 326.148L469.768 326.148C485.087 326.148 497.769 338.222 498.717 353.709C499.741 370.423 486.78 384.608 470.251 384.865L391.502 386.086C378.118 386.293 367.481 397.527 367.835 411.082C368.186 424.543 379.247 435.172 392.536 434.818L443.97 433.447C461.366 432.983 475.846 446.898 476.305 464.52C476.773 482.456 462.553 497.244 444.841 497.244H392.333C379.255 497.244 368.755 508.164 369.101 521.407C369.435 534.247 379.862 544.456 392.542 544.358L495.867 543.56C510.746 543.445 522.982 555.424 523.375 570.492C523.771 585.674 512.001 598.329 497.017 598.832Z" fill="white"/>
</svg>
