<svg width="464" height="289" viewBox="0 0 464 289" fill="none" xmlns="http://www.w3.org/2000/svg">
<path d="M67.3871 0H423.798C436.701 0 447.161 10.4597 447.161 23.3623C447.161 36.2649 436.701 46.7245 423.798 46.7245H399.886C392.588 46.7245 386.671 52.6411 386.671 59.9396C386.671 67.238 392.588 73.1546 399.886 73.1546H437.883C452.306 73.1546 463.998 84.8468 463.998 99.27C463.998 113.693 452.306 125.385 437.883 125.385H426.966C418.321 125.385 411.313 132.394 411.313 141.039C411.313 149.684 404.304 156.692 395.659 156.692H388.526C375.941 156.692 365.739 166.895 365.739 179.479V181.077C365.739 194.545 376.656 205.462 390.123 205.462H405.924C413.613 205.462 419.847 211.696 419.847 219.385C419.847 227.075 426.08 233.308 433.77 233.308H441.922C454.114 233.308 463.998 243.192 463.998 255.384V261.154C463.998 276.533 451.531 289 436.152 289H44.844C29.4651 289 16.998 276.533 16.998 261.154C16.998 245.775 29.4651 233.308 44.844 233.308H74.6649C82.3543 233.308 88.5879 227.075 88.5879 219.385C88.5879 211.696 82.3543 205.462 74.6649 205.462H69.2561C58.5795 205.462 49.9244 196.807 49.9244 186.13V181.077C49.9244 167.61 60.8419 156.692 74.3093 156.692H84.0345C92.6797 156.692 99.6881 149.684 99.6881 141.039C99.6881 132.394 92.6797 125.385 84.0345 125.385H43.1135C28.6903 125.385 16.998 113.693 16.998 99.27C16.998 84.8468 28.6903 73.1546 43.1135 73.1546H69.4733C80.03 73.1546 88.5879 64.5967 88.5879 54.04C88.5879 43.4833 80.03 34.9254 69.4733 34.9254H67.3871C57.7427 34.9254 49.9244 27.1071 49.9244 17.4627C49.9244 7.81832 57.7427 0 67.3871 0Z" fill="white"/>
<path d="M49.8986 13H411.888C424.201 13 434.182 22.9816 434.182 35.2945C434.182 47.6074 424.201 57.589 411.888 57.589H385.738C378.774 57.589 373.127 63.2351 373.127 70.2C373.127 77.1649 378.774 82.811 385.739 82.811H426.255C440.019 82.811 451.177 93.9689 451.177 107.733C451.177 121.497 440.019 132.655 426.255 132.655H412.937C404.687 132.655 397.999 139.343 397.999 147.593C397.999 155.843 391.311 162.531 383.061 162.531H374.999C362.297 162.531 351.999 172.963 351.999 185.665C351.999 198.517 362.418 209.071 375.27 209.071H393.327C400.665 209.071 406.613 215.02 406.613 222.358C406.613 229.696 412.562 235.645 419.9 235.645H428.895C441.201 235.645 451.177 245.621 451.177 257.927V262.218C451.177 276.894 439.28 288.791 424.604 288.791H26.5732C11.8972 288.791 0 276.894 0 262.218C0 247.542 11.8972 235.645 26.5732 235.645H58.9722C66.3102 235.645 72.2588 229.696 72.2588 222.358C72.2588 215.02 66.3102 209.071 58.9722 209.071H52.7464C41.97 209.071 33.234 200.335 33.234 189.559V185.801C33.234 172.949 43.6525 162.531 56.5043 162.531H68.5247C76.7747 162.531 83.4627 155.843 83.4627 147.593C83.4627 139.343 76.7747 132.655 68.5247 132.655H24.9218C11.1579 132.655 0 121.497 0 107.733C0 93.9689 11.1579 82.811 24.9218 82.811H54.0179C64.0921 82.811 72.2588 74.6443 72.2588 64.5701C72.2588 54.4959 64.092 46.3291 54.0179 46.3291H49.8986C40.695 46.3291 33.234 38.8682 33.234 29.6646C33.234 20.461 40.695 13 49.8986 13Z" fill="#EF93BC"/>
<path d="M139.307 207.455C139.334 202.376 135.238 198.236 130.158 198.209C125.078 198.182 120.939 202.278 120.912 207.358L120.864 216.431C120.837 221.51 124.933 225.65 130.013 225.677C135.092 225.704 139.232 221.608 139.259 216.528L139.307 207.455Z" fill="white"/>
<path d="M110.309 207.647C110.335 202.567 106.239 198.427 101.16 198.401C96.08 198.374 91.9403 202.47 91.9135 207.55L91.8655 216.622C91.8387 221.702 95.9348 225.841 101.014 225.868C106.094 225.895 110.234 221.799 110.261 216.719L110.309 207.647Z" fill="white"/>
<path d="M136.316 210.629C136.296 214.498 132.801 217.615 128.511 217.593C124.221 217.57 120.759 214.415 120.78 210.547C120.8 206.678 124.295 203.56 128.585 203.583C132.875 203.606 136.336 206.76 136.316 210.629Z" fill="black"/>
<path d="M110.394 210.546C110.373 214.415 106.879 217.532 102.588 217.51C98.2982 217.487 94.8369 214.332 94.8573 210.464C94.8778 206.595 98.3723 203.477 102.663 203.5C106.953 203.523 110.414 206.677 110.394 210.546Z" fill="black"/>
<path d="M91.1506 248.129C91.0676 256.124 97.5905 262.676 105.72 262.764C113.849 262.851 120.507 256.441 120.59 248.446C120.673 240.451 114.15 233.899 106.02 233.811C97.8911 233.723 91.2336 240.134 91.1506 248.129Z" fill="black"/>
</svg>
