<svg width="1140" height="321" viewBox="0 0 1140 321" fill="none" xmlns="http://www.w3.org/2000/svg">
<path d="M197.408 278.859H227.408V320.859H197.408V278.859Z" fill="#7D4023"/>
<path d="M877.408 278.859H907.408V320.859H877.408V278.859Z" fill="#7D4023"/>
<path fill-rule="evenodd" clip-rule="evenodd" d="M222.252 119.469C244.343 119.469 262.252 137.377 262.252 159.469V211.488H862.409V159.469C862.409 137.377 880.318 119.469 902.409 119.469C924.5 119.469 942.409 137.377 942.409 159.469V251.488C942.409 273.579 924.5 291.488 902.409 291.488H222.252C200.161 291.488 182.252 273.579 182.252 251.488V159.469C182.252 137.377 200.161 119.469 222.252 119.469Z" fill="#91859A"/>
<path d="M232.412 85.8594C232.412 58.2451 254.798 35.8594 282.412 35.8594H822.56C850.174 35.8594 872.56 58.2451 872.56 85.8594V192.788C872.56 220.402 850.174 242.788 822.56 242.788H282.412C254.798 242.788 232.412 220.402 232.412 192.788V85.8594Z" fill="#9F8DAC"/>
<path d="M232.412 85.8594C232.412 58.2451 254.798 35.8594 282.412 35.8594H822.56C850.174 35.8594 872.56 58.2451 872.56 85.8594V192.788C872.56 220.402 850.174 242.788 822.56 242.788H282.412C254.798 242.788 232.412 220.402 232.412 192.788V85.8594Z" fill="url(#paint0_linear_947_3666)" fill-opacity="0.2"/>
<path fill-rule="evenodd" clip-rule="evenodd" d="M212.408 110.312C234.5 110.312 252.408 128.221 252.408 150.312V202.331H852.565V150.312C852.565 128.221 870.474 110.312 892.565 110.312C914.656 110.312 932.565 128.221 932.565 150.312V242.331C932.565 264.423 914.656 282.331 892.565 282.331H212.408C190.317 282.331 172.408 264.423 172.408 242.331V150.312C172.408 128.221 190.317 110.312 212.408 110.312Z" fill="#C4B0D1"/>
<path d="M251.781 192.43H855.162V252.86H251.781V192.43Z" fill="#AD92AD"/>
<path d="M252.766 178.695H855.162V239.126H252.766V178.695Z" fill="#E2C5E2"/>
<g filter="url(#filter0_d_947_3666)">
<path d="M716.017 124.301C716.38 154.796 745.01 179.088 779.966 178.558C814.921 178.028 842.964 152.877 842.602 122.381C842.239 91.8857 813.608 67.5937 778.653 68.1237C743.698 68.6537 715.655 93.8049 716.017 124.301Z" fill="#FF615E"/>
<path d="M716.017 124.301C716.38 154.796 745.01 179.088 779.966 178.558C814.921 178.028 842.964 152.877 842.602 122.381C842.239 91.8857 813.608 67.5937 778.653 68.1237C743.698 68.6537 715.655 93.8049 716.017 124.301Z" fill="url(#paint1_radial_947_3666)"/>
</g>
<path d="M788.446 106.151C788.501 110.82 790.598 114.574 793.129 114.536C795.659 114.498 797.666 110.681 797.61 106.013C797.555 101.344 795.458 97.5897 792.928 97.6281C790.397 97.6664 788.39 101.482 788.446 106.151Z" fill="black"/>
<path d="M756.432 106.429C756.488 111.098 758.584 114.852 761.115 114.813C763.646 114.775 765.652 110.959 765.597 106.29C765.541 101.621 763.445 97.867 760.914 97.9054C758.383 97.9438 756.377 101.76 756.432 106.429Z" fill="black"/>
<g filter="url(#filter1_d_947_3666)">
<path d="M790.912 47.4467C781.163 48.7144 775.957 51.8299 771.351 59.1515C762.136 73.8022 801.546 88.7943 826.853 96.6782C834.725 99.1305 840.117 90.5577 835.168 83.1954C823.987 66.5657 806.499 45.4197 790.912 47.4467Z" fill="#6E5232"/>
<path d="M790.912 47.4467C781.163 48.7144 775.957 51.8299 771.351 59.1515C762.136 73.8022 801.546 88.7943 826.853 96.6782C834.725 99.1305 840.117 90.5577 835.168 83.1954C823.987 66.5657 806.499 45.4197 790.912 47.4467Z" fill="url(#paint2_radial_947_3666)" fill-opacity="0.2"/>
</g>
<g filter="url(#filter2_d_947_3666)">
<path d="M756.322 53.8292C765.791 54.4228 770.847 57.0126 775.317 63.5592C783.575 75.6558 751.553 90.5248 727.238 99.7195C717.674 103.336 710.917 92.9269 717.311 84.0654C728.085 69.1332 742.931 52.9899 756.322 53.8292Z" fill="#6E5232"/>
<path d="M756.322 53.8292C765.791 54.4228 770.847 57.0126 775.317 63.5592C783.575 75.6558 751.553 90.5248 727.238 99.7195C717.674 103.336 710.917 92.9269 717.311 84.0654C728.085 69.1332 742.931 52.9899 756.322 53.8292Z" fill="url(#paint3_radial_947_3666)" fill-opacity="0.2"/>
</g>
<g filter="url(#filter3_d_947_3666)">
<path d="M697.148 151.575C697.377 154.976 701.684 156.764 704.53 158.661C713.07 164.352 733.093 140.459 733.093 140.459L728.942 133.309C728.942 133.309 696.461 141.373 697.148 151.575Z" fill="#DE2210"/>
</g>
<g filter="url(#filter4_d_947_3666)">
<path d="M853.791 156.158C852.127 159.14 847.47 158.93 844.085 159.439C833.931 160.967 826.076 130.833 826.076 130.833L832.89 126.122C832.89 126.122 858.783 147.212 853.791 156.158Z" fill="#DE2210"/>
</g>
<path fill-rule="evenodd" clip-rule="evenodd" d="M762.252 124.963C764.737 124.961 766.75 126.973 766.748 129.458C766.744 132.504 768.014 134.618 769.972 136.095C772.056 137.667 775.065 138.591 778.301 138.587C781.536 138.583 784.547 137.652 786.634 136.075C788.595 134.594 789.869 132.477 789.872 129.431C789.874 126.946 791.891 124.929 794.376 124.926C796.861 124.923 798.874 126.935 798.872 129.421C798.866 135.469 796.117 140.178 792.05 143.252C788.109 146.229 783.087 147.581 778.292 147.587C773.496 147.592 768.476 146.252 764.542 143.284C760.48 140.22 757.741 135.517 757.747 129.469C757.75 126.983 759.767 124.966 762.252 124.963Z" fill="black"/>
<g filter="url(#filter5_d_947_3666)">
<path d="M531.708 207.599C528.366 209.748 525.967 209.855 522.446 208.014C511.884 202.489 520.275 159.544 520.275 159.544L529.537 159.129C529.537 159.129 541.733 201.152 531.708 207.599Z" fill="#2479B7"/>
</g>
<g filter="url(#filter6_d_947_3666)">
<path d="M460.627 207.215C457.173 209.178 454.771 209.154 451.356 207.123C441.112 201.03 451.836 158.607 451.836 158.607L461.106 158.698C461.106 158.698 470.99 201.325 460.627 207.215Z" fill="#237DBF"/>
</g>
<path d="M487.185 17.0051L561.834 176.165L413.151 176.451L487.185 17.0051Z" fill="#228CDA"/>
<path d="M487.185 17.0051L561.834 176.165L413.151 176.451L487.185 17.0051Z" fill="url(#paint4_linear_947_3666)"/>
<path fill-rule="evenodd" clip-rule="evenodd" d="M464.857 58.6259C457.315 58.6404 451.104 64.9861 451.119 72.9365C451.135 80.8869 457.37 87.2085 464.912 87.194C472.454 87.1794 478.665 80.8338 478.65 72.8834C478.634 64.933 472.399 58.6114 464.857 58.6259ZM447.119 72.9442C447.1 62.9077 454.977 54.6449 464.849 54.6259C474.721 54.6069 482.63 62.8392 482.65 72.8757C482.669 82.9121 474.792 91.1749 464.92 91.194C455.048 91.213 447.139 82.9806 447.119 72.9442Z" fill="#FA8F21"/>
<path fill-rule="evenodd" clip-rule="evenodd" d="M509.673 58.4892C502.132 58.5037 495.92 64.8494 495.936 72.7998C495.951 80.7502 502.187 87.0718 509.728 87.0572C517.27 87.0427 523.481 80.6971 523.466 72.7467C523.451 64.7963 517.215 58.4746 509.673 58.4892ZM491.936 72.8075C491.916 62.771 499.794 54.5082 509.666 54.4892C519.538 54.4701 527.447 62.7025 527.466 72.739C527.485 82.7754 519.608 91.0382 509.736 91.0572C499.864 91.0763 491.955 82.8439 491.936 72.8075Z" fill="#FA8F21"/>
<path fill-rule="evenodd" clip-rule="evenodd" d="M490.652 72.7811C489.066 72.4129 487.26 72.0992 485.931 72.1313C484.745 72.16 483.14 72.4833 481.734 72.8407C481.052 73.014 480.454 73.1857 480.026 73.3139C479.813 73.3778 479.644 73.4305 479.529 73.4668C479.472 73.4849 479.429 73.4989 479.4 73.508L479.37 73.518L479.363 73.5201C479.363 73.5201 479.363 73.5203 478.735 71.6212C478.108 69.7221 478.108 69.722 478.109 69.722L478.114 69.7202L478.126 69.7162L478.168 69.7024C478.205 69.6907 478.256 69.6741 478.322 69.6532C478.454 69.6115 478.643 69.5528 478.877 69.4824C479.345 69.3421 480 69.1543 480.749 68.964C482.205 68.5939 484.174 68.1726 485.834 68.1325C487.696 68.0875 489.915 68.5037 491.557 68.8848C492.401 69.0808 493.14 69.279 493.668 69.4283C493.933 69.5032 494.146 69.5661 494.295 69.6109C494.369 69.6333 494.427 69.6512 494.468 69.6638L494.516 69.6786L494.53 69.6829L494.535 69.6847C494.536 69.6848 494.536 69.685 493.933 71.5919C493.33 73.4988 493.33 73.4988 493.33 73.4989L493.322 73.4963L493.287 73.4855C493.255 73.4756 493.206 73.4605 493.142 73.4411C493.012 73.4021 492.821 73.3455 492.58 73.2775C492.097 73.141 491.421 72.9597 490.652 72.7811Z" fill="#FA8F21"/>
<path d="M471.331 72.9C471.338 76.5777 468.457 79.5647 464.897 79.5716C461.336 79.5784 458.444 76.6026 458.437 72.9248C458.43 69.247 461.31 66.2601 464.871 66.2532C468.431 66.2463 471.324 69.2222 471.331 72.9Z" fill="black"/>
<path d="M516.149 72.814C516.156 76.4918 513.275 79.4788 509.715 79.4856C506.154 79.4925 503.262 76.5166 503.255 72.8389C503.248 69.1611 506.129 66.1741 509.689 66.1673C513.25 66.1604 516.142 69.1362 516.149 72.814Z" fill="black"/>
<path fill-rule="evenodd" clip-rule="evenodd" d="M480.129 99.5586C480.127 98.454 481.02 97.5569 482.125 97.5547L493.121 97.5335C494.225 97.5314 495.123 98.4251 495.125 99.5297C495.127 100.634 494.233 101.531 493.129 101.534L482.133 101.555C481.028 101.557 480.131 100.663 480.129 99.5586Z" fill="black"/>
<g filter="url(#filter7_d_947_3666)">
<path d="M558.201 141.268C557.427 144.549 556.03 146.043 552.808 147.035C543.141 150.01 523.07 119.225 523.07 119.225L528.463 113.458C528.463 113.458 560.523 131.423 558.201 141.268Z" fill="#228CDA"/>
</g>
<g filter="url(#filter8_d_947_3666)">
<path d="M420.559 141.524C417.487 140.135 416.289 138.477 415.934 135.124C414.869 125.066 448.934 111.277 448.934 111.277L453.559 117.677C453.559 117.677 429.774 145.692 420.559 141.524Z" fill="#228CDA"/>
</g>
<g filter="url(#filter9_d_947_3666)">
<path d="M704.023 138.63C702.945 142.612 701.177 144.383 697.196 145.467C685.254 148.718 661.943 110.261 661.943 110.261L668.771 103.425C668.771 103.425 707.258 126.684 704.023 138.63Z" fill="#E285AE"/>
</g>
<g filter="url(#filter10_d_947_3666)">
<path d="M647.351 211.008C643.667 212.866 641.168 212.733 637.702 210.495C627.305 203.781 640.346 160.744 640.346 160.744L649.994 161.256C649.994 161.256 658.401 205.433 647.351 211.008Z" fill="#E285AE"/>
</g>
<g filter="url(#filter11_d_947_3666)">
<path d="M610.943 210.858C607.421 213.006 604.919 213.075 601.284 211.122C590.382 205.265 599.924 161.319 599.924 161.319L609.582 161.056C609.582 161.056 621.51 204.415 610.943 210.858Z" fill="#E285AE"/>
</g>
<g filter="url(#filter12_d_947_3666)">
<path d="M567.597 140.843C563.784 139.269 562.251 137.29 561.681 133.204C559.971 120.946 601.073 102.701 601.073 102.701L606.989 110.34C606.989 110.34 579.036 145.567 567.597 140.843Z" fill="#E285AE"/>
</g>
<g filter="url(#filter13_d_947_3666)">
<path d="M609.294 54.9425L692.119 55.0778L662.773 180.297L574.998 180.154L609.294 54.9425Z" fill="#F498C1"/>
<path d="M609.294 54.9425L692.119 55.0778L662.773 180.297L574.998 180.154L609.294 54.9425Z" fill="url(#paint5_linear_947_3666)"/>
</g>
<path d="M615.764 84.9231C615.773 79.0306 620.558 74.2617 626.45 74.2713C632.343 74.281 637.112 79.0655 637.102 84.958L637.087 94.3126C637.077 100.205 632.293 104.974 626.4 104.964C620.508 104.955 615.739 100.17 615.749 94.2777L615.764 84.9231Z" fill="white"/>
<path fill-rule="evenodd" clip-rule="evenodd" d="M633.501 92.0103L633.53 92.0382L626.72 98.9634L619.529 92.1035L619.549 92.0835C619.402 91.9694 619.26 91.8468 619.123 91.716C616.913 89.6076 616.856 86.134 618.997 83.9573C621.013 81.9068 624.261 81.739 626.478 83.4896C628.636 81.7513 631.823 81.8438 633.875 83.8012C636.085 85.9096 636.141 89.3832 634.001 91.5598C633.841 91.7217 633.674 91.8719 633.501 92.0103Z" fill="black"/>
<path d="M647.684 84.9778C647.693 79.0853 652.478 74.3164 658.37 74.326C664.263 74.3357 669.032 79.1202 669.022 85.0126L669.007 94.3672C668.997 100.26 664.213 105.029 658.32 105.019C652.428 105.009 647.659 100.225 647.668 94.3324L647.684 84.9778Z" fill="white"/>
<path fill-rule="evenodd" clip-rule="evenodd" d="M665.423 92.065L665.452 92.0929L658.641 99.0181L651.451 92.1582L651.47 92.1382C651.324 92.0241 651.182 91.9015 651.045 91.7707C648.835 89.6623 648.778 86.1887 650.919 84.012C652.935 81.9615 656.183 81.7936 658.4 83.5443C660.558 81.8059 663.745 81.8985 665.797 83.8559C668.007 85.9642 668.063 89.4379 665.922 91.6144C665.763 91.7764 665.596 91.9266 665.423 92.065Z" fill="black"/>
<path fill-rule="evenodd" clip-rule="evenodd" d="M636.564 116.43L635.972 115.052C635.211 115.379 634.859 116.261 635.186 117.022C635.512 117.783 636.394 118.135 637.155 117.809L637.157 117.808L637.169 117.803L637.223 117.78C637.272 117.76 637.346 117.73 637.442 117.691C637.635 117.615 637.913 117.508 638.248 117.389C638.925 117.148 639.806 116.869 640.675 116.686C641.586 116.495 642.305 116.45 642.739 116.54C642.809 116.554 642.857 116.569 642.889 116.581C642.909 116.817 642.871 116.906 642.865 116.918C642.861 116.928 642.848 116.958 642.773 117.012C642.542 117.181 642.148 117.309 641.379 117.52C641.348 117.529 641.315 117.538 641.282 117.547C640.662 117.716 639.737 117.968 639.007 118.492C638.585 118.795 638.191 119.209 637.928 119.773C637.666 120.335 637.577 120.952 637.621 121.597C637.667 122.265 637.879 122.893 638.311 123.411C638.734 123.918 639.27 124.202 639.763 124.365C640.622 124.649 641.647 124.647 642.374 124.646C642.41 124.646 642.447 124.646 642.482 124.646C643.375 124.646 643.907 124.662 644.242 124.774C644.265 124.782 644.283 124.789 644.297 124.795C644.3 124.815 644.303 124.842 644.305 124.878C644.308 124.934 644.302 124.932 644.3 124.931C644.3 124.931 644.3 124.931 644.3 124.931C644.271 124.966 644.16 125.07 643.868 125.189C643.265 125.434 642.322 125.569 641.203 125.598C640.119 125.627 639.012 125.554 638.164 125.472C637.743 125.431 637.392 125.388 637.149 125.356C637.027 125.34 636.933 125.326 636.87 125.317L636.8 125.307L636.784 125.304L636.782 125.304C635.964 125.175 635.195 125.733 635.065 126.551C634.936 127.369 635.494 128.138 636.312 128.267L636.541 126.825C636.312 128.267 636.312 128.267 636.312 128.267L636.316 128.268L636.323 128.269L636.348 128.273C636.369 128.276 636.398 128.28 636.436 128.286C636.511 128.297 636.619 128.312 636.755 128.33C637.027 128.366 637.413 128.413 637.873 128.458C638.789 128.547 640.029 128.63 641.282 128.597C642.5 128.565 643.882 128.422 644.998 127.968C645.565 127.738 646.162 127.388 646.615 126.839C647.096 126.255 647.343 125.529 647.301 124.723C647.267 124.056 647.067 123.424 646.641 122.898C646.223 122.383 645.687 122.095 645.195 121.93C644.339 121.643 643.314 121.645 642.589 121.646C642.552 121.646 642.516 121.646 642.48 121.646C641.589 121.647 641.05 121.631 640.705 121.516C640.669 121.505 640.644 121.494 640.626 121.486C640.622 121.465 640.617 121.435 640.614 121.392C640.598 121.153 640.638 121.06 640.647 121.041C640.654 121.025 640.672 120.989 640.757 120.929C641 120.754 641.404 120.624 642.172 120.413C642.203 120.405 642.235 120.396 642.267 120.387C642.886 120.219 643.814 119.966 644.54 119.437C644.962 119.129 645.352 118.709 645.606 118.139C645.858 117.572 645.934 116.953 645.877 116.312C645.814 115.584 645.527 114.926 645 114.424C644.5 113.947 643.891 113.714 643.343 113.601C642.285 113.384 641.067 113.539 640.059 113.75C639.008 113.971 637.988 114.297 637.243 114.562C636.868 114.695 636.555 114.816 636.334 114.904C636.224 114.948 636.136 114.984 636.074 115.009L636.002 115.039L635.982 115.048L635.975 115.05L635.973 115.051C635.973 115.051 635.972 115.052 636.564 116.43Z" fill="black"/>
<g filter="url(#filter14_d_947_3666)">
<path d="M260.738 156.418C261.68 160.378 263.37 162.178 267.262 163.368C278.94 166.938 303.099 129.725 303.099 129.725L296.575 122.775C296.575 122.775 257.912 144.539 260.738 156.418Z" fill="#1CB76B"/>
</g>
<g filter="url(#filter15_d_947_3666)">
<path d="M318.397 189.25C322.013 191.12 324.48 191.014 327.921 188.841C338.246 182.321 325.809 139.731 325.809 139.731L316.285 140.141C316.285 140.141 307.551 183.641 318.397 189.25Z" fill="#1CB76B"/>
</g>
<g filter="url(#filter16_d_947_3666)">
<path d="M355.885 189.25C359.501 191.12 361.968 191.014 365.409 188.841C375.734 182.321 363.297 139.731 363.297 139.731L353.773 140.141C353.773 140.141 345.039 183.641 355.885 189.25Z" fill="#1CB76B"/>
</g>
<g filter="url(#filter17_d_947_3666)">
<path fill-rule="evenodd" clip-rule="evenodd" d="M332.26 74.5053C331.798 73.2174 331.378 71.8641 331.01 70.4613C328.385 60.4433 329.444 51.692 333.375 50.9148C336.936 50.2106 341.634 56.2936 344.437 64.8938C347.489 58.8458 351.044 54.9895 353.435 55.6063C356.66 56.4386 356.545 65.0974 353.177 74.9463C353.067 75.2672 352.955 75.5853 352.841 75.9006C377.557 81.5567 395.783 101.105 395.783 124.35C395.783 152.02 369.961 174.45 338.107 174.45C306.254 174.45 280.432 152.02 280.432 124.35C280.432 98.3958 303.153 77.0509 332.26 74.5053Z" fill="#1CB76B"/>
</g>
<path d="M343.448 114.86C343.448 121.174 349.341 126.293 356.611 126.293C363.88 126.293 369.773 121.174 369.773 114.86C369.773 108.545 363.88 103.426 356.611 103.426C349.341 103.426 343.448 108.545 343.448 114.86Z" fill="white"/>
<path d="M306.444 114.86C306.444 121.174 312.337 126.293 319.607 126.293C326.876 126.293 332.77 121.174 332.77 114.86C332.77 108.545 326.876 103.426 319.607 103.426C312.337 103.426 306.444 108.545 306.444 114.86Z" fill="white"/>
<path d="M347.939 115.097C347.939 119.053 351.631 122.26 356.185 122.26C360.74 122.26 364.432 119.053 364.432 115.097C364.432 111.141 360.74 107.934 356.185 107.934C351.631 107.934 347.939 111.141 347.939 115.097Z" fill="black"/>
<path d="M311.597 115.823C311.597 119.779 315.289 122.986 319.844 122.986C324.398 122.986 328.09 119.779 328.09 115.823C328.09 111.867 324.398 108.66 319.844 108.66C315.289 108.66 311.597 111.867 311.597 115.823Z" fill="black"/>
<g filter="url(#filter18_d_947_3666)">
<path d="M423.656 153.265C426.49 150.343 427.1 147.95 426.012 144.028C422.749 132.261 378.382 131.88 378.382 131.88L376.026 141.117C376.026 141.117 415.156 162.031 423.656 153.265Z" fill="#1CB76B"/>
</g>
<path fill-rule="evenodd" clip-rule="evenodd" d="M350.009 133.547C351.622 133.923 352.626 135.536 352.25 137.15C351.183 141.727 346.86 145.993 341.638 147.213C338.926 147.847 335.925 147.676 332.981 146.298C330.053 144.928 327.371 142.456 325.095 138.794C324.22 137.386 324.652 135.537 326.059 134.662C327.467 133.788 329.316 134.219 330.191 135.627C331.994 138.528 333.866 140.088 335.524 140.864C337.165 141.632 338.78 141.72 340.273 141.371C343.461 140.626 345.901 137.957 346.406 135.789C346.782 134.175 348.395 133.172 350.009 133.547Z" fill="black"/>
<path fill-rule="evenodd" clip-rule="evenodd" d="M21.4848 33.3491C23.6241 38.0892 26.368 41.5679 29.3496 42.8536C31.9306 43.9667 34.5257 44.2242 38.4194 44.2252C39.036 44.2254 39.7031 44.2175 40.4141 44.2092C43.9128 44.168 48.4749 44.1143 53.3221 44.941C55.7474 45.3547 58.0079 45.6528 60.3042 45.9556L60.3937 45.9674C62.663 46.2667 65.049 46.5817 67.3887 47.0145C72.2207 47.9085 77.1656 49.3542 82.3336 52.5497C89.824 57.1811 93.9775 65.2782 96.1867 70.8659C97.365 73.8459 98.1662 76.5727 98.6751 78.5543C98.9312 79.5515 99.1175 80.3768 99.2432 80.9716C99.3061 81.2694 99.354 81.5107 99.3882 81.6882C99.4052 81.777 99.4188 81.85 99.4292 81.9062L99.4422 81.978L99.4468 82.0042L99.4496 82.0197C99.45 82.0219 99.4503 82.024 91.0776 83.4895L99.4503 82.024C100.26 86.6481 97.1672 91.0528 92.543 91.8622C87.9256 92.6704 83.5269 89.5879 82.7084 84.9749C82.7075 84.97 82.7067 84.9651 82.7058 84.9603L82.7062 84.9624L82.7072 84.9683L82.7079 84.9723C82.7061 84.9623 82.7013 84.9366 82.6936 84.8962C82.6781 84.8154 82.6506 84.6762 82.6102 84.4853C82.5294 84.1026 82.398 83.5174 82.2094 82.7828C81.8288 81.3007 81.2323 79.2784 80.3775 77.1165C78.5207 72.4202 76.0671 68.6622 73.3932 67.0089C70.5726 65.2648 67.8121 64.3814 64.296 63.7308C62.4616 63.3915 60.5128 63.1303 58.1709 62.8215L57.9836 62.7968C55.7451 62.5016 53.2101 62.1674 50.464 61.699C47.2656 61.1535 44.5009 61.1787 41.0925 61.2097C40.2453 61.2174 39.3583 61.2255 38.415 61.2252C33.9194 61.224 28.4726 60.9888 22.6178 58.464C13.6552 54.599 8.63172 46.1961 5.98979 40.3424C4.58352 37.2265 3.62982 34.334 3.02572 32.2265C2.72139 31.1648 2.49991 30.2817 2.35043 29.6432C2.27556 29.3234 2.2184 29.0635 2.17765 28.8715C2.15726 28.7755 2.14095 28.6964 2.12856 28.6351L2.11287 28.5567L2.10718 28.5278L2.10384 28.5106C2.10337 28.5082 2.10291 28.5058 10.449 26.8957L2.10291 28.5058C1.21372 23.8963 4.22957 19.4388 8.83901 18.5496C13.4407 17.6619 17.891 20.6661 18.7906 25.2625C18.79 25.2591 18.7899 25.2586 18.7906 25.2625C18.7922 25.2702 18.7937 25.278 18.7952 25.2857L10.4829 26.8892C18.7952 25.2857 18.7947 25.2835 18.7943 25.2813L18.7935 25.2773L18.7908 25.2635C18.7928 25.2729 18.7981 25.2989 18.8069 25.3405C18.8246 25.4237 18.8562 25.5687 18.9029 25.7679C18.9964 26.1674 19.1487 26.7786 19.3676 27.5423C19.81 29.0855 20.5004 31.1681 21.4848 33.3491ZM82.7056 84.9588C82.7056 84.9589 82.7056 84.9588 82.7056 84.9588V84.9588Z" fill="#8ECAE6"/>
<path fill-rule="evenodd" clip-rule="evenodd" d="M1108.81 19.0347C1114.04 22.1113 1115.8 28.8521 1112.72 34.0905L1085.45 80.5208C1082.37 85.7592 1075.63 87.5117 1070.39 84.435C1065.16 81.3583 1063.4 74.6176 1066.48 69.3791L1093.75 22.9489C1096.83 17.7104 1103.57 15.958 1108.81 19.0347Z" fill="#1CB76B"/>
<path fill-rule="evenodd" clip-rule="evenodd" d="M1058.56 33.5046C1061.63 28.2661 1068.38 26.5137 1073.61 29.5903L1116.73 54.9122C1121.97 57.9889 1123.72 64.7297 1120.64 69.9681C1117.57 75.2065 1110.82 76.959 1105.59 73.8823L1062.47 48.5604C1057.23 45.4838 1055.48 38.743 1058.56 33.5046Z" fill="#1CB76B"/>
<defs>
<filter id="filter0_d_947_3666" x="709.914" y="67.0133" width="148.792" height="132.653" filterUnits="userSpaceOnUse" color-interpolation-filters="sRGB">
<feFlood flood-opacity="0" result="BackgroundImageFix"/>
<feColorMatrix in="SourceAlpha" type="matrix" values="0 0 0 0 0 0 0 0 0 0 0 0 0 0 0 0 0 0 127 0" result="hardAlpha"/>
<feOffset dx="5" dy="10"/>
<feGaussianBlur stdDeviation="5.55"/>
<feComposite in2="hardAlpha" operator="out"/>
<feColorMatrix type="matrix" values="0 0 0 0 0 0 0 0 0 0 0 0 0 0 0 0 0 0 0.25 0"/>
<feBlend mode="normal" in2="BackgroundImageFix" result="effect1_dropShadow_947_3666"/>
<feBlend mode="normal" in="SourceGraphic" in2="effect1_dropShadow_947_3666" result="shape"/>
</filter>
<filter id="filter1_d_947_3666" x="759.482" y="47.3125" width="88.0879" height="72.293" filterUnits="userSpaceOnUse" color-interpolation-filters="sRGB">
<feFlood flood-opacity="0" result="BackgroundImageFix"/>
<feColorMatrix in="SourceAlpha" type="matrix" values="0 0 0 0 0 0 0 0 0 0 0 0 0 0 0 0 0 0 127 0" result="hardAlpha"/>
<feOffset dy="12"/>
<feGaussianBlur stdDeviation="5.25"/>
<feComposite in2="hardAlpha" operator="out"/>
<feColorMatrix type="matrix" values="0 0 0 0 0 0 0 0 0 0 0 0 0 0 0 0 0 0 0.25 0"/>
<feBlend mode="normal" in2="BackgroundImageFix" result="effect1_dropShadow_947_3666"/>
<feBlend mode="normal" in="SourceGraphic" in2="effect1_dropShadow_947_3666" result="shape"/>
</filter>
<filter id="filter2_d_947_3666" x="704.305" y="53.7969" width="82.8398" height="69.1602" filterUnits="userSpaceOnUse" color-interpolation-filters="sRGB">
<feFlood flood-opacity="0" result="BackgroundImageFix"/>
<feColorMatrix in="SourceAlpha" type="matrix" values="0 0 0 0 0 0 0 0 0 0 0 0 0 0 0 0 0 0 127 0" result="hardAlpha"/>
<feOffset dy="12"/>
<feGaussianBlur stdDeviation="5.25"/>
<feComposite in2="hardAlpha" operator="out"/>
<feColorMatrix type="matrix" values="0 0 0 0 0 0 0 0 0 0 0 0 0 0 0 0 0 0 0.25 0"/>
<feBlend mode="normal" in2="BackgroundImageFix" result="effect1_dropShadow_947_3666"/>
<feBlend mode="normal" in="SourceGraphic" in2="effect1_dropShadow_947_3666" result="shape"/>
</filter>
<filter id="filter3_d_947_3666" x="689.137" y="131.309" width="47.9551" height="38.2266" filterUnits="userSpaceOnUse" color-interpolation-filters="sRGB">
<feFlood flood-opacity="0" result="BackgroundImageFix"/>
<feColorMatrix in="SourceAlpha" type="matrix" values="0 0 0 0 0 0 0 0 0 0 0 0 0 0 0 0 0 0 127 0" result="hardAlpha"/>
<feOffset dx="-2" dy="4"/>
<feGaussianBlur stdDeviation="3"/>
<feComposite in2="hardAlpha" operator="out"/>
<feColorMatrix type="matrix" values="0 0 0 0 0 0 0 0 0 0 0 0 0 0 0 0 0 0 0.25 0"/>
<feBlend mode="normal" in2="BackgroundImageFix" result="effect1_dropShadow_947_3666"/>
<feBlend mode="normal" in="SourceGraphic" in2="effect1_dropShadow_947_3666" result="shape"/>
</filter>
<filter id="filter4_d_947_3666" x="818.076" y="124.121" width="40.3535" height="45.375" filterUnits="userSpaceOnUse" color-interpolation-filters="sRGB">
<feFlood flood-opacity="0" result="BackgroundImageFix"/>
<feColorMatrix in="SourceAlpha" type="matrix" values="0 0 0 0 0 0 0 0 0 0 0 0 0 0 0 0 0 0 127 0" result="hardAlpha"/>
<feOffset dx="-2" dy="4"/>
<feGaussianBlur stdDeviation="3"/>
<feComposite in2="hardAlpha" operator="out"/>
<feColorMatrix type="matrix" values="0 0 0 0 0 0 0 0 0 0 0 0 0 0 0 0 0 0 0.25 0"/>
<feBlend mode="normal" in2="BackgroundImageFix" result="effect1_dropShadow_947_3666"/>
<feBlend mode="normal" in="SourceGraphic" in2="effect1_dropShadow_947_3666" result="shape"/>
</filter>
<filter id="filter5_d_947_3666" x="509.115" y="157.129" width="30.5469" height="62.1797" filterUnits="userSpaceOnUse" color-interpolation-filters="sRGB">
<feFlood flood-opacity="0" result="BackgroundImageFix"/>
<feColorMatrix in="SourceAlpha" type="matrix" values="0 0 0 0 0 0 0 0 0 0 0 0 0 0 0 0 0 0 127 0" result="hardAlpha"/>
<feOffset dx="-2" dy="4"/>
<feGaussianBlur stdDeviation="3"/>
<feComposite in2="hardAlpha" operator="out"/>
<feColorMatrix type="matrix" values="0 0 0 0 0 0 0 0 0 0 0 0 0 0 0 0 0 0 0.25 0"/>
<feBlend mode="normal" in2="BackgroundImageFix" result="effect1_dropShadow_947_3666"/>
<feBlend mode="normal" in="SourceGraphic" in2="effect1_dropShadow_947_3666" result="shape"/>
</filter>
<filter id="filter6_d_947_3666" x="438.924" y="156.605" width="30.4355" height="62.0625" filterUnits="userSpaceOnUse" color-interpolation-filters="sRGB">
<feFlood flood-opacity="0" result="BackgroundImageFix"/>
<feColorMatrix in="SourceAlpha" type="matrix" values="0 0 0 0 0 0 0 0 0 0 0 0 0 0 0 0 0 0 127 0" result="hardAlpha"/>
<feOffset dx="-2" dy="4"/>
<feGaussianBlur stdDeviation="3"/>
<feComposite in2="hardAlpha" operator="out"/>
<feColorMatrix type="matrix" values="0 0 0 0 0 0 0 0 0 0 0 0 0 0 0 0 0 0 0.25 0"/>
<feBlend mode="normal" in2="BackgroundImageFix" result="effect1_dropShadow_947_3666"/>
<feBlend mode="normal" in="SourceGraphic" in2="effect1_dropShadow_947_3666" result="shape"/>
</filter>
<filter id="filter7_d_947_3666" x="515.07" y="111.457" width="47.25" height="45.7812" filterUnits="userSpaceOnUse" color-interpolation-filters="sRGB">
<feFlood flood-opacity="0" result="BackgroundImageFix"/>
<feColorMatrix in="SourceAlpha" type="matrix" values="0 0 0 0 0 0 0 0 0 0 0 0 0 0 0 0 0 0 127 0" result="hardAlpha"/>
<feOffset dx="-2" dy="4"/>
<feGaussianBlur stdDeviation="3"/>
<feComposite in2="hardAlpha" operator="out"/>
<feColorMatrix type="matrix" values="0 0 0 0 0 0 0 0 0 0 0 0 0 0 0 0 0 0 0.25 0"/>
<feBlend mode="normal" in2="BackgroundImageFix" result="effect1_dropShadow_947_3666"/>
<feBlend mode="normal" in="SourceGraphic" in2="effect1_dropShadow_947_3666" result="shape"/>
</filter>
<filter id="filter8_d_947_3666" x="407.91" y="109.277" width="49.6484" height="42.668" filterUnits="userSpaceOnUse" color-interpolation-filters="sRGB">
<feFlood flood-opacity="0" result="BackgroundImageFix"/>
<feColorMatrix in="SourceAlpha" type="matrix" values="0 0 0 0 0 0 0 0 0 0 0 0 0 0 0 0 0 0 127 0" result="hardAlpha"/>
<feOffset dx="-2" dy="4"/>
<feGaussianBlur stdDeviation="3"/>
<feComposite in2="hardAlpha" operator="out"/>
<feColorMatrix type="matrix" values="0 0 0 0 0 0 0 0 0 0 0 0 0 0 0 0 0 0 0.25 0"/>
<feBlend mode="normal" in2="BackgroundImageFix" result="effect1_dropShadow_947_3666"/>
<feBlend mode="normal" in="SourceGraphic" in2="effect1_dropShadow_947_3666" result="shape"/>
</filter>
<filter id="filter9_d_947_3666" x="653.943" y="101.426" width="54.2734" height="54.2344" filterUnits="userSpaceOnUse" color-interpolation-filters="sRGB">
<feFlood flood-opacity="0" result="BackgroundImageFix"/>
<feColorMatrix in="SourceAlpha" type="matrix" values="0 0 0 0 0 0 0 0 0 0 0 0 0 0 0 0 0 0 127 0" result="hardAlpha"/>
<feOffset dx="-2" dy="4"/>
<feGaussianBlur stdDeviation="3"/>
<feComposite in2="hardAlpha" operator="out"/>
<feColorMatrix type="matrix" values="0 0 0 0 0 0 0 0 0 0 0 0 0 0 0 0 0 0 0.25 0"/>
<feBlend mode="normal" in2="BackgroundImageFix" result="effect1_dropShadow_947_3666"/>
<feBlend mode="normal" in="SourceGraphic" in2="effect1_dropShadow_947_3666" result="shape"/>
</filter>
<filter id="filter10_d_947_3666" x="625.68" y="158.742" width="31.375" height="63.5547" filterUnits="userSpaceOnUse" color-interpolation-filters="sRGB">
<feFlood flood-opacity="0" result="BackgroundImageFix"/>
<feColorMatrix in="SourceAlpha" type="matrix" values="0 0 0 0 0 0 0 0 0 0 0 0 0 0 0 0 0 0 127 0" result="hardAlpha"/>
<feOffset dx="-2" dy="4"/>
<feGaussianBlur stdDeviation="3"/>
<feComposite in2="hardAlpha" operator="out"/>
<feColorMatrix type="matrix" values="0 0 0 0 0 0 0 0 0 0 0 0 0 0 0 0 0 0 0.25 0"/>
<feBlend mode="normal" in2="BackgroundImageFix" result="effect1_dropShadow_947_3666"/>
<feBlend mode="normal" in="SourceGraphic" in2="effect1_dropShadow_947_3666" result="shape"/>
</filter>
<filter id="filter11_d_947_3666" x="588.059" y="159.055" width="31.252" height="63.4766" filterUnits="userSpaceOnUse" color-interpolation-filters="sRGB">
<feFlood flood-opacity="0" result="BackgroundImageFix"/>
<feColorMatrix in="SourceAlpha" type="matrix" values="0 0 0 0 0 0 0 0 0 0 0 0 0 0 0 0 0 0 127 0" result="hardAlpha"/>
<feOffset dx="-2" dy="4"/>
<feGaussianBlur stdDeviation="3"/>
<feComposite in2="hardAlpha" operator="out"/>
<feColorMatrix type="matrix" values="0 0 0 0 0 0 0 0 0 0 0 0 0 0 0 0 0 0 0.25 0"/>
<feBlend mode="normal" in2="BackgroundImageFix" result="effect1_dropShadow_947_3666"/>
<feBlend mode="normal" in="SourceGraphic" in2="effect1_dropShadow_947_3666" result="shape"/>
</filter>
<filter id="filter12_d_947_3666" x="553.629" y="100.699" width="57.3594" height="50.5781" filterUnits="userSpaceOnUse" color-interpolation-filters="sRGB">
<feFlood flood-opacity="0" result="BackgroundImageFix"/>
<feColorMatrix in="SourceAlpha" type="matrix" values="0 0 0 0 0 0 0 0 0 0 0 0 0 0 0 0 0 0 127 0" result="hardAlpha"/>
<feOffset dx="-2" dy="4"/>
<feGaussianBlur stdDeviation="3"/>
<feComposite in2="hardAlpha" operator="out"/>
<feColorMatrix type="matrix" values="0 0 0 0 0 0 0 0 0 0 0 0 0 0 0 0 0 0 0.25 0"/>
<feBlend mode="normal" in2="BackgroundImageFix" result="effect1_dropShadow_947_3666"/>
<feBlend mode="normal" in="SourceGraphic" in2="effect1_dropShadow_947_3666" result="shape"/>
</filter>
<filter id="filter13_d_947_3666" x="564.298" y="54.2414" width="138.521" height="146.755" filterUnits="userSpaceOnUse" color-interpolation-filters="sRGB">
<feFlood flood-opacity="0" result="BackgroundImageFix"/>
<feColorMatrix in="SourceAlpha" type="matrix" values="0 0 0 0 0 0 0 0 0 0 0 0 0 0 0 0 0 0 127 0" result="hardAlpha"/>
<feOffset dy="10"/>
<feGaussianBlur stdDeviation="5.35"/>
<feComposite in2="hardAlpha" operator="out"/>
<feColorMatrix type="matrix" values="0 0 0 0 0 0 0 0 0 0 0 0 0 0 0 0 0 0 0.25 0"/>
<feBlend mode="normal" in2="BackgroundImageFix" result="effect1_dropShadow_947_3666"/>
<feBlend mode="normal" in="SourceGraphic" in2="effect1_dropShadow_947_3666" result="shape"/>
</filter>
<filter id="filter14_d_947_3666" x="252.59" y="120.773" width="54.5098" height="52.8359" filterUnits="userSpaceOnUse" color-interpolation-filters="sRGB">
<feFlood flood-opacity="0" result="BackgroundImageFix"/>
<feColorMatrix in="SourceAlpha" type="matrix" values="0 0 0 0 0 0 0 0 0 0 0 0 0 0 0 0 0 0 127 0" result="hardAlpha"/>
<feOffset dx="-2" dy="4"/>
<feGaussianBlur stdDeviation="3"/>
<feComposite in2="hardAlpha" operator="out"/>
<feColorMatrix type="matrix" values="0 0 0 0 0 0 0 0 0 0 0 0 0 0 0 0 0 0 0.25 0"/>
<feBlend mode="normal" in2="BackgroundImageFix" result="effect1_dropShadow_947_3666"/>
<feBlend mode="normal" in="SourceGraphic" in2="effect1_dropShadow_947_3666" result="shape"/>
</filter>
<filter id="filter15_d_947_3666" x="304.961" y="137.73" width="31.0586" height="62.8359" filterUnits="userSpaceOnUse" color-interpolation-filters="sRGB">
<feFlood flood-opacity="0" result="BackgroundImageFix"/>
<feColorMatrix in="SourceAlpha" type="matrix" values="0 0 0 0 0 0 0 0 0 0 0 0 0 0 0 0 0 0 127 0" result="hardAlpha"/>
<feOffset dx="-2" dy="4"/>
<feGaussianBlur stdDeviation="3"/>
<feComposite in2="hardAlpha" operator="out"/>
<feColorMatrix type="matrix" values="0 0 0 0 0 0 0 0 0 0 0 0 0 0 0 0 0 0 0.25 0"/>
<feBlend mode="normal" in2="BackgroundImageFix" result="effect1_dropShadow_947_3666"/>
<feBlend mode="normal" in="SourceGraphic" in2="effect1_dropShadow_947_3666" result="shape"/>
</filter>
<filter id="filter16_d_947_3666" x="342.449" y="137.73" width="31.0586" height="62.8359" filterUnits="userSpaceOnUse" color-interpolation-filters="sRGB">
<feFlood flood-opacity="0" result="BackgroundImageFix"/>
<feColorMatrix in="SourceAlpha" type="matrix" values="0 0 0 0 0 0 0 0 0 0 0 0 0 0 0 0 0 0 127 0" result="hardAlpha"/>
<feOffset dx="-2" dy="4"/>
<feGaussianBlur stdDeviation="3"/>
<feComposite in2="hardAlpha" operator="out"/>
<feColorMatrix type="matrix" values="0 0 0 0 0 0 0 0 0 0 0 0 0 0 0 0 0 0 0.25 0"/>
<feBlend mode="normal" in2="BackgroundImageFix" result="effect1_dropShadow_947_3666"/>
<feBlend mode="normal" in="SourceGraphic" in2="effect1_dropShadow_947_3666" result="shape"/>
</filter>
<filter id="filter17_d_947_3666" x="264.832" y="48.2594" width="132.552" height="140.79" filterUnits="userSpaceOnUse" color-interpolation-filters="sRGB">
<feFlood flood-opacity="0" result="BackgroundImageFix"/>
<feColorMatrix in="SourceAlpha" type="matrix" values="0 0 0 0 0 0 0 0 0 0 0 0 0 0 0 0 0 0 127 0" result="hardAlpha"/>
<feOffset dx="-7" dy="6"/>
<feGaussianBlur stdDeviation="4.3"/>
<feComposite in2="hardAlpha" operator="out"/>
<feColorMatrix type="matrix" values="0 0 0 0 0 0 0 0 0 0 0 0 0 0 0 0 0 0 0.25 0"/>
<feBlend mode="normal" in2="BackgroundImageFix" result="effect1_dropShadow_947_3666"/>
<feBlend mode="normal" in="SourceGraphic" in2="effect1_dropShadow_947_3666" result="shape"/>
</filter>
<filter id="filter18_d_947_3666" x="368.027" y="129.879" width="62.4922" height="35.5312" filterUnits="userSpaceOnUse" color-interpolation-filters="sRGB">
<feFlood flood-opacity="0" result="BackgroundImageFix"/>
<feColorMatrix in="SourceAlpha" type="matrix" values="0 0 0 0 0 0 0 0 0 0 0 0 0 0 0 0 0 0 127 0" result="hardAlpha"/>
<feOffset dx="-2" dy="4"/>
<feGaussianBlur stdDeviation="3"/>
<feComposite in2="hardAlpha" operator="out"/>
<feColorMatrix type="matrix" values="0 0 0 0 0 0 0 0 0 0 0 0 0 0 0 0 0 0 0.25 0"/>
<feBlend mode="normal" in2="BackgroundImageFix" result="effect1_dropShadow_947_3666"/>
<feBlend mode="normal" in="SourceGraphic" in2="effect1_dropShadow_947_3666" result="shape"/>
</filter>
<linearGradient id="paint0_linear_947_3666" x1="545.908" y1="35.8594" x2="544.908" y2="167.859" gradientUnits="userSpaceOnUse">
<stop offset="0.0164957" stop-opacity="0"/>
<stop offset="0.78218" stop-opacity="0.8"/>
</linearGradient>
<radialGradient id="paint1_radial_947_3666" cx="0" cy="0" r="1" gradientUnits="userSpaceOnUse" gradientTransform="translate(770.829 117.037) rotate(128.971) scale(50.0522 65.4362)">
<stop stop-color="#D28078" stop-opacity="0"/>
<stop offset="1" stop-color="#DE2210"/>
</radialGradient>
<radialGradient id="paint2_radial_947_3666" cx="0" cy="0" r="1" gradientUnits="userSpaceOnUse" gradientTransform="translate(811.469 74.8311) rotate(112.916) scale(17.5949 43.1879)">
<stop offset="0.33" stop-opacity="0"/>
<stop offset="0.655" stop-opacity="0.6"/>
<stop offset="1"/>
</radialGradient>
<radialGradient id="paint3_radial_947_3666" cx="0" cy="0" r="1" gradientUnits="userSpaceOnUse" gradientTransform="translate(736.334 80.5938) rotate(65.6614) scale(16.1255 42.6681)">
<stop offset="0.33" stop-opacity="0"/>
<stop offset="0.655" stop-opacity="0.6"/>
<stop offset="1"/>
</radialGradient>
<linearGradient id="paint4_linear_947_3666" x1="487.185" y1="17.0051" x2="487.492" y2="176.308" gradientUnits="userSpaceOnUse">
<stop stop-color="#2189D6" stop-opacity="0"/>
<stop offset="1" stop-color="#266798" stop-opacity="0.7"/>
</linearGradient>
<linearGradient id="paint5_linear_947_3666" x1="643.584" y1="54.9985" x2="619.156" y2="173.606" gradientUnits="userSpaceOnUse">
<stop offset="0.235" stop-color="#F498C1" stop-opacity="0"/>
<stop offset="1" stop-color="#E285AE"/>
</linearGradient>
</defs>
</svg>
